<svg width="70.000000" height="70.000000" viewBox="0 0 70 70" fill="none" xmlns="http://www.w3.org/2000/svg" xmlns:xlink="http://www.w3.org/1999/xlink">
	<desc>
			Created with Pixso.
	</desc>
	<defs>
		<clipPath id="clip3_10">
			<rect id="Location-Icon" rx="-0.500000" width="69.000000" height="69.000000" transform="translate(0.500000 0.500000)" fill="white" fill-opacity="0"/>
		</clipPath>
	</defs>
	<rect id="Location-Icon" rx="-0.500000" width="69.000000" height="69.000000" transform="translate(0.500000 0.500000)" fill="#FFFFFF" fill-opacity="0"/>
	<g clip-path="url(#clip3_10)">
		<path id="Combined-Shape" d="M35 5.83C46.27 5.83 55.41 14.97 55.41 26.25C55.41 29.65 54.58 32.87 53.1 35.69L35 67.08L17.31 36.45C15.57 33.45 14.58 29.96 14.58 26.25C14.58 14.97 23.72 5.83 35 5.83ZM35 11.66C26.94 11.66 20.41 18.19 20.41 26.25C20.41 28.56 20.95 30.78 21.96 32.79L22.45 33.68L35 55.41L47.63 33.53C48.9 31.34 49.58 28.85 49.58 26.25C49.58 18.19 43.05 11.66 35 11.66ZM35 17.5C39.83 17.5 43.75 21.41 43.75 26.25C43.75 31.08 39.83 35 35 35C30.16 35 26.25 31.08 26.25 26.25C26.25 21.41 30.16 17.5 35 17.5ZM35 23.33C33.38 23.33 32.08 24.63 32.08 26.25C32.08 27.86 33.38 29.16 35 29.16C36.61 29.16 37.91 27.86 37.91 26.25C37.91 24.63 36.61 23.33 35 23.33Z" fill="#C0B7E8" fill-opacity="1.000000" fill-rule="evenodd"/>
	</g>
</svg>
