<svg width="59.000000" height="59.000000" viewBox="0 0 59 59" fill="none" xmlns="http://www.w3.org/2000/svg" xmlns:xlink="http://www.w3.org/1999/xlink">
	<desc>
			Created with Pixso.
	</desc>
	<defs>
		<clipPath id="clip3_28">
			<rect id="outline / phone-call" rx="-0.500000" width="58.000000" height="58.000000" transform="translate(0.500000 0.500000)" fill="white" fill-opacity="0"/>
		</clipPath>
	</defs>
	<g clip-path="url(#clip3_28)">
		<path id="shape" d="M51.62 47.16C51.63 49.71 49.34 51.83 46.77 51.6C24.58 51.62 7.37 34.25 7.39 12.21C7.16 9.65 9.27 7.37 11.82 7.37L18.49 7.37C19.57 7.36 20.62 7.74 21.44 8.44C23.76 10.44 25.26 17.22 24.68 19.92C24.23 22.02 22.11 23.49 20.67 24.93C23.84 30.49 28.45 35.1 34.02 38.26C35.46 36.82 36.94 34.7 39.05 34.25C41.75 33.68 48.58 35.18 50.57 37.52C51.27 38.35 51.65 39.41 51.62 40.5L51.62 47.16ZM35.64 15.97C37.45 16.33 39.25 17.13 40.56 18.43C41.86 19.74 42.66 21.54 43.02 23.35M36.87 7.37C40.64 7.79 44.02 9.61 46.7 12.29C49.38 14.96 51.2 18.36 51.62 22.12" stroke="#C0B7E8" stroke-opacity="1.000000" stroke-width="6.000000" stroke-linejoin="round" stroke-linecap="round"/>
	</g>
</svg>
